# xmcd CD Database Entry
#
# Track frame offsets:
# 150
# 24216
# 48041
# 69927
# 88333
# 109929
# 131301
# 154392
# 177116
# 197360
# 222572
# 244942
# 266440
#
# Disc length: 3777 seconds
#
# Revision: 3
# Processed by: cddbd v1.4PL0 Copyright (c) Steve Scherf et al.
# Submitted via: tcd 2.0b
#
DISCID=ac0ebf0d
DTITLE=ses - japan1
DYEAR=1900
DGENRE=
TTITLE0=01abcd
TTITLE1=02 bcdf
TTITLE2=3번 트랙
TTITLE3=4번 트랙
TTITLE4=5번 트랙
TTITLE5=6번 트랙
TTITLE6=7번 트랙
TTITLE7=8번 트랙
TTITLE8=9번 트랙
TTITLE9=10번 트랙
TTITLE10=11번 트랙
TTITLE11=12번 트랙
TTITLE12=13번 트랙
EXTD=
EXTT0=
EXTT1=
EXTT2=
EXTT3=
EXTT4=
EXTT5=
EXTT6=
EXTT7=
EXTT8=
EXTT9=
EXTT10=
EXTT11=
EXTT12=
PLAYORDER=
